<?xml version="1.0" encoding="UTF-8" standalone="no"?><!DOCTYPE svg PUBLIC "-//W3C//DTD SVG 1.1//EN" "http://www.w3.org/Graphics/SVG/1.1/DTD/svg11.dtd"><svg width="1000" height="1000" viewBox="0 0 151 142" version="1.1" xmlns="http://www.w3.org/2000/svg" xmlns:xlink="http://www.w3.org/1999/xlink" xml:space="preserve" xmlns:serif="http://www.serif.com/" style="fill-rule:evenodd;clip-rule:evenodd;stroke-linejoin:round;stroke-miterlimit:2;"><g><g><path d="M99.625,3.083l50.251,40.042c0.666,9.167 -0.792,18.708 -4.375,28.667c-6.25,17.083 -17.209,32.125 -32.834,45.083l-4.208,-5.042c14.875,-12.166 25.208,-26.25 31,-42.208c3.333,-9.167 4.708,-17.833 4.042,-25.958c-0.542,-7.834 -2.917,-14.625 -7.042,-20.459c-7.5,-10.708 -19.167,-16.291 -35.042,-16.75l-2.333,7.375c7.25,0.792 13.625,2.959 19.083,6.542c6.917,4.708 11.75,11.042 14.417,19.083l-12.083,4.042c-1.792,-5.25 -4.875,-9.375 -9.292,-12.417c-4.417,-3 -9.875,-4.625 -16.334,-4.875l-11.75,35.709c0.667,0.666 1.209,1.416 1.667,2.166c1,2.125 1,4.417 0,6.875c-0.875,2.584 -2.583,4.75 -5.042,6.542c-2.458,1.792 -4.958,2.667 -7.541,2.667c-0.667,-0 -1.334,-0.125 -2,-0.334l-35.875,25.459c2.25,2.333 4.916,4.25 8.041,5.708c3.125,1.458 6.709,2.333 10.709,2.667l-1,12.583c-13.959,-1.125 -24.292,-6.875 -31,-17.25c-3.584,-5.583 -5.542,-11.958 -5.959,-19.083c-0.375,-7.167 0.75,-14.542 3.417,-22.125c3,-8.25 7.667,-16.084 13.917,-23.459l9.708,8.209c-5.25,6.25 -9.125,12.791 -11.542,19.625c-3.916,10.625 -3.958,19.791 -0.166,27.5l33.666,-26.959c0,-1.208 0.209,-2.458 0.667,-3.666c1.333,-3.792 3.958,-6.542 7.875,-8.209l13.583,-34.166c-13.75,2 -26.416,8.5 -38.041,19.458l-8.709,-9.208c7.584,-7.167 15.959,-12.792 25.125,-16.917c9.042,-4.042 18.042,-6.125 26.959,-6.375l2.666,-6.875c-12.083,0.875 -24.166,4.75 -36.375,11.542l-3.166,-5.542c15.083,-8.5 30,-12.75 44.75,-12.75c9.167,-0 17.375,1.708 24.625,5.125c7.25,3.417 13.125,8.292 17.583,14.667c4.709,6.708 7.375,14.541 8.042,23.458l-50.084,-40.167Zm-20.625,65.875c0.334,-0.875 0.334,-1.625 0,-2.166c-0.125,-0.209 -0.333,-0.375 -0.666,-0.5c-0.209,-0.125 -0.5,-0.167 -0.834,-0.167c-0.458,0 -0.875,0.042 -1.333,0.167c-2.667,0.791 -4.458,2.333 -5.375,4.708c-0.333,1 -0.333,1.792 0,2.333c0.208,0.334 0.708,0.5 1.5,0.5c1.333,0 2.667,-0.5 3.958,-1.5c1.292,-1 2.209,-2.125 2.75,-3.333l0,-0.042Zm-28.5,66c16.417,0 32.792,-5.458 49.084,-16.416l3.5,5.375c-17.417,11.625 -34.959,17.416 -52.625,17.416c-9.167,0 -17.375,-1.708 -24.625,-5.125c-7.25,-3.416 -13.125,-8.25 -17.584,-14.5c-4.708,-6.833 -7.375,-14.708 -8.041,-23.625c-0.792,-9.041 0.666,-18.541 4.375,-28.5c3.583,-9.958 9,-19.375 16.25,-28.333c6.916,-8.583 15.041,-16.125 24.291,-22.625l3.667,5.208c-8.833,6.125 -16.542,13.292 -23.125,21.459c-6.708,8.375 -11.792,17.208 -15.25,26.458c-3.25,9.042 -4.542,17.667 -3.833,25.792c0.541,7.833 2.833,14.625 6.875,20.458c3.916,5.458 9,9.667 15.333,12.583c6.292,2.917 13.542,4.375 21.708,4.375Zm80.626,-62.833c-5.25,14.292 -14.584,26.583 -28.001,36.875c-13.291,10.375 -27.25,16.125 -41.875,17.25l-1,-12.583c12.167,-1 23.959,-5.917 35.375,-14.75c11.376,-8.834 19.209,-19.209 23.459,-31.167c2.458,-6.583 3.333,-12.792 2.667,-18.583l12.583,-1.334c0.875,7.709 -0.167,15.792 -3.167,24.292l-0.041,0Z" style="fill:#00bbf2;fill-rule:nonzero;"/></g></g></svg>