<?xml version="1.0" encoding="UTF-8" standalone="no"?><!DOCTYPE svg PUBLIC "-//W3C//DTD SVG 1.1//EN" "http://www.w3.org/Graphics/SVG/1.1/DTD/svg11.dtd"><svg width="1000" height="1000" viewBox="0 0 764 720" version="1.1" xmlns="http://www.w3.org/2000/svg" xmlns:xlink="http://www.w3.org/1999/xlink" xml:space="preserve" xmlns:serif="http://www.serif.com/" style="fill-rule:evenodd;clip-rule:evenodd;stroke-linejoin:round;stroke-miterlimit:2;"><g><path d="M506.723,16.202c-368.956,441.153 -368.956,441.153 -0,-0Zm255.823,203.806c3.411,46.616 -3.98,95.223 -22.171,145.819c-31.835,86.979 -87.549,163.443 -167.137,229.387l-21.318,-25.583c75.609,-61.965 128.194,-133.596 157.758,-214.891c17.054,-46.616 23.876,-90.676 20.464,-132.175c-2.841,-39.794 -14.78,-74.473 -35.813,-104.035c-38.091,-54.575 -97.498,-83 -178.225,-85.274l-11.939,37.521c36.953,3.979 69.356,15.065 97.213,33.258c35.247,23.876 59.692,56.28 73.336,97.212l-61.397,20.465c-9.097,-26.718 -24.872,-47.753 -47.328,-63.102c-22.455,-15.35 -50.17,-23.593 -83.142,-24.73l-59.692,181.634c3.411,3.411 6.252,7.106 8.527,11.086c5.116,10.801 5.116,22.455 0,34.962c-4.548,13.076 -13.075,24.162 -25.583,33.257c-12.506,9.096 -25.298,13.644 -38.372,13.644c-3.412,0 -6.822,-0.568 -10.234,-1.705l-182.488,129.617c11.371,11.939 25.015,21.603 40.933,28.993c15.917,7.39 34.109,11.939 54.575,13.644l-5.116,63.956c-71.062,-5.686 -123.649,-34.963 -157.758,-87.833c-18.192,-28.425 -28.283,-60.83 -30.273,-97.212c-1.989,-36.384 3.838,-73.905 17.482,-112.562c15.348,-42.069 38.941,-81.864 70.777,-119.386l49.459,41.786c-26.72,31.835 -46.332,65.092 -58.838,99.77c-19.898,54.008 -20.183,100.624 -0.854,139.85l171.401,-137.292c-0,-6.252 1.136,-12.506 3.41,-18.759c6.822,-19.33 20.183,-33.257 40.079,-41.784l69.073,-173.959c-69.925,10.232 -134.449,43.204 -193.574,98.917l-44.342,-46.901c38.657,-36.384 81.295,-65.092 127.911,-86.127c46.049,-20.466 91.812,-31.267 137.292,-32.404l13.644,-34.962c-61.398,4.548 -123.079,24.161 -185.045,58.839l-16.201,-28.141c76.746,-43.205 152.641,-64.808 227.682,-64.808c46.616,0 88.4,8.67 125.353,26.009c36.952,17.339 66.797,42.21 89.539,74.614c23.876,34.11 37.52,73.905 40.931,119.386l0.001,-0l0,-0.001Zm-360.711,131.322c1.705,-4.547 1.705,-8.243 -0,-11.086c-0.569,-1.137 -1.705,-1.989 -3.411,-2.558c-1.138,-0.569 -2.558,-0.852 -4.263,-0.852c-2.275,-0 -4.549,0.283 -6.822,0.852c-13.644,3.98 -22.74,11.939 -27.289,23.877c-1.705,5.116 -1.705,9.096 0,11.938c1.137,1.707 3.696,2.559 7.674,2.559c6.822,-0 13.503,-2.559 20.04,-7.674c6.539,-5.117 11.229,-10.803 14.071,-17.056Zm-144.967,335.98c83.568,0 166.853,-27.855 249.853,-83.568l17.908,27.288c-88.685,59.124 -177.939,88.685 -267.761,88.685c-46.617,0 -88.401,-8.67 -125.353,-26.009c-36.953,-17.338 -66.799,-41.927 -89.539,-73.762c-23.877,-34.678 -37.52,-74.757 -40.931,-120.237c-3.98,-46.048 3.411,-94.37 22.171,-144.967c18.192,-50.596 45.764,-98.634 82.716,-144.114c35.247,-43.774 76.463,-82.147 123.647,-115.12l18.761,26.435c-44.911,31.268 -84.137,67.65 -117.678,109.151c-34.11,42.638 -59.977,87.549 -77.6,134.734c-16.486,46.048 -23.024,89.822 -19.613,131.323c2.842,39.794 14.497,74.473 34.963,104.034c19.897,27.857 45.905,49.175 78.026,63.956c32.12,14.781 68.929,22.171 110.43,22.171l-0,0Zm410.17,-319.778c-26.72,72.768 -74.189,135.303 -142.408,187.604c-67.651,52.87 -138.712,82.148 -213.187,87.833l-5.115,-63.955c61.965,-5.117 121.942,-30.131 179.929,-75.043c57.987,-44.911 97.781,-97.781 119.384,-158.61c12.506,-33.54 17.054,-65.092 13.644,-94.654l63.956,-6.822c4.547,39.226 -0.854,80.443 -16.203,123.647l0,0Z" style="fill-rule:nonzero;"/></g></svg>